<svg enable-background="new 0 0 1232.052 293.61" height="293.61" viewBox="0 0 1232.052 293.61" width="1232.052" xmlns="http://www.w3.org/2000/svg" xmlns:xlink="http://www.w3.org/1999/xlink"><linearGradient id="a"><stop offset="0" stop-color="#8eeeff"/><stop offset=".9952" stop-color="#00b6ea"/></linearGradient><linearGradient id="b" gradientTransform="matrix(1 0 0 -1 -169.66 1.65)" gradientUnits="userSpaceOnUse" x1="496.4896" x2="273.8601" xlink:href="#a" y1="-162.2538" y2="-9.9665"/><linearGradient id="c" gradientTransform="matrix(1 0 0 -1 -169.66 1.65)" gradientUnits="userSpaceOnUse" x1="317.3542" x2="168.9756" xlink:href="#a" y1="-36.3827" y2="-221.5027"/><path d="m247.729 200.792v-46.582h-46.077v46.582h-21.459-25.122v46.077h25.122 21.459v21.458 25.123h46.077v-25.123-21.458h46.581v-46.077z" fill="#377bb6"/><path d="m209.134 32.321h-7.266-61.342-4.634c10.905 15.339 36.705 46.639 65.7 46.639v.066 58.455h46.136v-66.499-.066c.001-21.315-17.278-38.595-38.594-38.595z" fill="url(#b)"/><path d="m74.762 46.639c7.443 0 16.886 2.507 22.768 9.282 10.405 11.983 20.846 23.063 37.341 23.063.647 0 8.283-.023 8.283-.023h58.438c-28.995 0-54.795-31.3-65.7-46.639-3.536-4.973-5.515-8.279-5.517-8.283-11.114-20.057-23.428-24.039-35.662-24.039h-18.751-37.251c-21.306 0-38.581 17.264-38.595 38.569l-.116 169.631c-.002 2.397.22 4.789.662 7.145.149.794.324 1.595.52 2.379 4.323 17.293 17.463 29.097 42.096 29.097h95.064v-46.043h-91.327c0 .206-.013.274-.03.274-.034 0-.086-.274-.086-.274l.116-154.139z" fill="url(#c)"/><g fill="#005193"><path d="m392.715 190.106h-16.111v-99.421h16.111v44.849l14.804-1.161 20.32-43.687h18.433l-24.529 49.929 25.545 49.493h-18.723l-21.045-41.51-14.804 1.016v40.492z"/><path d="m512.455 139.887v33.092c.096 2.13.653 3.701 1.669 4.718 1.016 1.016 2.587 1.668 4.717 1.959l-.435 12.047c-8.323 0-14.758-1.789-19.304-5.37-7.742 3.581-15.53 5.37-23.368 5.37-14.418 0-21.625-7.692-21.625-23.077 0-7.353 1.959-12.676 5.877-15.966 3.919-3.288 9.942-5.272 18.071-5.95l18.723-1.597v-5.226c0-3.868-.848-6.579-2.54-8.127-1.694-1.547-4.186-2.323-7.475-2.323-6.193 0-13.934.388-23.223 1.161l-4.644.29-.581-11.176c10.545-2.515 20.247-3.774 29.101-3.774 8.853 0 15.24 1.912 19.158 5.733 3.919 3.824 5.879 9.896 5.879 18.216zm-32.511 17.998c-6.677.581-10.015 4.209-10.015 10.885s2.951 10.014 8.854 10.014c4.837 0 9.965-.773 15.385-2.322l2.613-.871v-19.303z"/><path d="m532.337 190.106v-72.57h15.675v8.708c8.224-5.32 16.449-8.755 24.674-10.305v15.821c-8.323 1.646-15.435 3.774-21.336 6.386l-3.193 1.306v50.654z"/><path d="m623.775 131.033h-20.03v31.932c0 5.903.435 9.821 1.306 11.756.871 1.936 3.096 2.903 6.677 2.903l11.901-.436.726 12.628c-6.485 1.257-11.419 1.887-14.805 1.887-8.226 0-13.861-1.887-16.909-5.661-3.047-3.774-4.571-10.885-4.571-21.336v-33.673h-9.29v-13.498h9.29v-21.045h15.675v21.045h20.03z"/><path d="m690.393 139.887v33.092c.095 2.13.653 3.701 1.669 4.718 1.016 1.016 2.587 1.668 4.717 1.959l-.435 12.047c-8.323 0-14.758-1.789-19.304-5.37-7.742 3.581-15.53 5.37-23.368 5.37-14.418 0-21.625-7.692-21.625-23.077 0-7.353 1.959-12.676 5.877-15.966 3.919-3.288 9.942-5.272 18.071-5.95l18.723-1.597v-5.226c0-3.868-.848-6.579-2.54-8.127-1.694-1.547-4.186-2.323-7.475-2.323-6.193 0-13.934.388-23.223 1.161l-4.644.29-.581-11.176c10.545-2.515 20.247-3.774 29.101-3.774 8.853 0 15.24 1.912 19.158 5.733 3.919 3.824 5.879 9.896 5.879 18.216zm-32.512 17.998c-6.677.581-10.015 4.209-10.015 10.885s2.951 10.014 8.854 10.014c4.837 0 9.965-.773 15.385-2.322l2.613-.871v-19.303z"/><path d="m738.72 104.763v-14.078h65.313v15.529l-46.155 67.055v2.758h46.155v14.078h-65.313v-15.385l46.01-67.055v-2.903h-46.01z"/><path d="m877.622 87.346v102.76h-15.675v-3.774c-7.064 3.581-13.548 5.37-19.449 5.37-9.485 0-16.426-2.853-20.828-8.563-4.405-5.708-6.604-15.287-6.604-28.738 0-13.448 2.442-23.223 7.329-29.318 4.885-6.096 12.505-9.144 22.859-9.144 3.483 0 8.999.63 16.546 1.887v-30.48zm-18.288 87.666 2.467-1.017v-42.962c-5.805-.966-11.176-1.451-16.11-1.451-9.774 0-14.659 8.127-14.659 24.383 0 8.904 1.136 15.073 3.411 18.506 2.273 3.436 5.878 5.153 10.813 5.153 4.934 0 9.626-.871 14.078-2.612z"/><path d="m896.779 190.106v-72.57h15.675v8.708c8.224-5.32 16.448-8.755 24.674-10.305v15.821c-8.323 1.646-15.435 3.774-21.336 6.386l-3.193 1.306v50.654z"/><path d="m952.584 125.373c4.984-6.289 13.28-9.435 24.893-9.435 11.611 0 19.906 3.146 24.893 9.435 4.981 6.291 7.473 15.725 7.473 28.303 0 12.579-2.419 22.061-7.256 28.447-4.839 6.386-13.209 9.579-25.109 9.579-11.902 0-20.273-3.193-25.109-9.579-4.839-6.386-7.256-15.868-7.256-28.447-.002-12.577 2.486-22.012 7.471-28.303zm11.831 47.171c2.225 3.871 6.579 5.805 13.062 5.805s10.835-1.934 13.062-5.805c2.224-3.869 3.339-10.207 3.339-19.014 0-8.804-1.185-15.045-3.555-18.723-2.372-3.676-6.654-5.515-12.845-5.515-6.193 0-10.475 1.839-12.845 5.515-2.372 3.678-3.555 9.92-3.555 18.723-.002 8.807 1.109 15.145 3.337 19.014z"/><path d="m1019.859 117.535h15.528l11.467 59.073h2.904l13.788-57.621h16.257l13.788 57.621h2.902l11.321-59.073h15.676l-15.387 72.57h-25.108l-11.323-49.783-11.319 49.783h-25.109z"/><path d="m1136.987 105.198v-16.691h15.82v16.691zm0 84.908v-72.57h15.82v72.57z"/><path d="m1225.666 139.887v33.092c.096 2.13.654 3.701 1.669 4.718 1.016 1.016 2.589 1.668 4.717 1.959l-.435 12.047c-8.323 0-14.757-1.789-19.304-5.37-7.741 3.581-15.528 5.37-23.367 5.37-14.418 0-21.625-7.692-21.625-23.077 0-7.353 1.959-12.676 5.878-15.966 3.917-3.288 9.941-5.272 18.07-5.95l18.723-1.597v-5.226c0-3.868-.848-6.579-2.539-8.127-1.695-1.547-4.187-2.323-7.475-2.323-6.195 0-13.934.388-23.224 1.161l-4.644.29-.581-11.176c10.546-2.515 20.247-3.774 29.1-3.774 8.855 0 15.241 1.912 19.158 5.733 3.92 3.824 5.879 9.896 5.879 18.216zm-32.511 17.998c-6.676.581-10.014 4.209-10.014 10.885s2.951 10.014 8.855 10.014c4.837 0 9.963-.773 15.385-2.322l2.612-.871v-19.303z"/></g></svg>